<mxfile host="app.diagrams.net" modified="2023-04-21T12:58:31.461Z" agent="Mozilla/5.0 (Windows NT 10.0; Win64; x64) AppleWebKit/537.36 (KHTML, like Gecko) Chrome/112.0.0.0 Safari/537.36" etag="b3g0RKA8RjSKmAE-n4VK" version="21.2.1" type="device">
  <diagram name="Страница 1" id="Y7fdmkCdAOw_nw4FtkV0">
    <mxGraphModel dx="2327" dy="2079" grid="1" gridSize="10" guides="1" tooltips="1" connect="1" arrows="1" fold="1" page="1" pageScale="1" pageWidth="827" pageHeight="1169" math="0" shadow="0">
      <root>
        <mxCell id="0" />
        <mxCell id="1" parent="0" />
        <mxCell id="HZP4EUPkdjJxszeQHDiw-8" value="" style="edgeStyle=orthogonalEdgeStyle;rounded=0;orthogonalLoop=1;jettySize=auto;html=1;" edge="1" parent="1" source="HZP4EUPkdjJxszeQHDiw-1" target="HZP4EUPkdjJxszeQHDiw-7">
          <mxGeometry relative="1" as="geometry" />
        </mxCell>
        <mxCell id="HZP4EUPkdjJxszeQHDiw-10" value="" style="edgeStyle=orthogonalEdgeStyle;rounded=0;orthogonalLoop=1;jettySize=auto;html=1;" edge="1" parent="1" source="HZP4EUPkdjJxszeQHDiw-1" target="HZP4EUPkdjJxszeQHDiw-9">
          <mxGeometry relative="1" as="geometry" />
        </mxCell>
        <mxCell id="HZP4EUPkdjJxszeQHDiw-12" value="" style="edgeStyle=orthogonalEdgeStyle;rounded=0;orthogonalLoop=1;jettySize=auto;html=1;" edge="1" parent="1" source="HZP4EUPkdjJxszeQHDiw-1" target="HZP4EUPkdjJxszeQHDiw-11">
          <mxGeometry relative="1" as="geometry" />
        </mxCell>
        <mxCell id="HZP4EUPkdjJxszeQHDiw-1" value="&lt;b&gt;BaseTypeUnit // Базовый тип&lt;/b&gt;&lt;br&gt;&lt;div&gt;&lt;ol&gt;&lt;li style=&quot;text-align: left;&quot;&gt;protected String name; // Имя персонажа&lt;/li&gt;&lt;li style=&quot;text-align: left;&quot;&gt;protected int level; // Уровень&lt;/li&gt;&lt;li style=&quot;text-align: left;&quot;&gt;protected int maxLevel; // Уровень макс&lt;/li&gt;&lt;li style=&quot;text-align: left;&quot;&gt;&lt;span style=&quot;background-color: initial;&quot;&gt;protected int health; // Здоровье&lt;/span&gt;&lt;/li&gt;&lt;li style=&quot;text-align: left;&quot;&gt;protected int maxHealth; // Здоровье макс&lt;/li&gt;&lt;li style=&quot;text-align: left;&quot;&gt;protected int[] damage; // Наносимый урон&lt;/li&gt;&lt;li style=&quot;text-align: left;&quot;&gt;protected int armor; // Защита (броня)&lt;/li&gt;&lt;li style=&quot;text-align: left;&quot;&gt;protected int force; // Сила&lt;/li&gt;&lt;li style=&quot;text-align: left;&quot;&gt;protected int agility; // Ловкость&lt;/li&gt;&lt;li style=&quot;text-align: left;&quot;&gt;protected int accuracy; // Меткость&lt;br&gt;&lt;/li&gt;&lt;/ol&gt;&lt;/div&gt;" style="rounded=0;whiteSpace=wrap;html=1;" vertex="1" parent="1">
          <mxGeometry x="270" y="-90" width="350" height="190" as="geometry" />
        </mxCell>
        <mxCell id="HZP4EUPkdjJxszeQHDiw-28" value="" style="edgeStyle=orthogonalEdgeStyle;rounded=0;orthogonalLoop=1;jettySize=auto;html=1;" edge="1" parent="1" source="HZP4EUPkdjJxszeQHDiw-7" target="HZP4EUPkdjJxszeQHDiw-27">
          <mxGeometry relative="1" as="geometry">
            <Array as="points">
              <mxPoint x="920" y="275" />
              <mxPoint x="920" y="-5" />
            </Array>
          </mxGeometry>
        </mxCell>
        <mxCell id="HZP4EUPkdjJxszeQHDiw-32" value="" style="edgeStyle=orthogonalEdgeStyle;rounded=0;orthogonalLoop=1;jettySize=auto;html=1;" edge="1" parent="1" source="HZP4EUPkdjJxszeQHDiw-7" target="HZP4EUPkdjJxszeQHDiw-31">
          <mxGeometry relative="1" as="geometry" />
        </mxCell>
        <mxCell id="HZP4EUPkdjJxszeQHDiw-7" value="&lt;b&gt;Mage // Маг&lt;br&gt;&lt;/b&gt;&lt;div&gt;&lt;ol&gt;&lt;li style=&quot;text-align: left;&quot;&gt;protected int mana; // Мана&lt;/li&gt;&lt;/ol&gt;&lt;/div&gt;" style="rounded=0;whiteSpace=wrap;html=1;" vertex="1" parent="1">
          <mxGeometry x="620" y="180" width="240" height="190" as="geometry" />
        </mxCell>
        <mxCell id="HZP4EUPkdjJxszeQHDiw-21" value="" style="edgeStyle=orthogonalEdgeStyle;rounded=0;orthogonalLoop=1;jettySize=auto;html=1;" edge="1" parent="1" source="HZP4EUPkdjJxszeQHDiw-9" target="HZP4EUPkdjJxszeQHDiw-20">
          <mxGeometry relative="1" as="geometry" />
        </mxCell>
        <mxCell id="HZP4EUPkdjJxszeQHDiw-23" value="" style="edgeStyle=orthogonalEdgeStyle;rounded=0;orthogonalLoop=1;jettySize=auto;html=1;" edge="1" parent="1" source="HZP4EUPkdjJxszeQHDiw-9" target="HZP4EUPkdjJxszeQHDiw-22">
          <mxGeometry relative="1" as="geometry" />
        </mxCell>
        <mxCell id="HZP4EUPkdjJxszeQHDiw-9" value="&lt;b&gt;Shooter // Стрелок&lt;br&gt;&lt;/b&gt;&lt;div&gt;&lt;ol&gt;&lt;li style=&quot;&quot;&gt;protected int ammunition; // Боеприпасы&lt;/li&gt;&lt;/ol&gt;&lt;/div&gt;" style="rounded=0;whiteSpace=wrap;html=1;align=center;" vertex="1" parent="1">
          <mxGeometry x="315" y="180" width="260" height="190" as="geometry" />
        </mxCell>
        <mxCell id="HZP4EUPkdjJxszeQHDiw-14" value="" style="edgeStyle=orthogonalEdgeStyle;rounded=0;orthogonalLoop=1;jettySize=auto;html=1;" edge="1" parent="1" source="HZP4EUPkdjJxszeQHDiw-11" target="HZP4EUPkdjJxszeQHDiw-13">
          <mxGeometry relative="1" as="geometry">
            <Array as="points">
              <mxPoint x="-120" y="275" />
              <mxPoint x="-120" y="545" />
            </Array>
          </mxGeometry>
        </mxCell>
        <mxCell id="HZP4EUPkdjJxszeQHDiw-16" value="" style="edgeStyle=orthogonalEdgeStyle;rounded=0;orthogonalLoop=1;jettySize=auto;html=1;" edge="1" parent="1" source="HZP4EUPkdjJxszeQHDiw-11" target="HZP4EUPkdjJxszeQHDiw-15">
          <mxGeometry relative="1" as="geometry" />
        </mxCell>
        <mxCell id="HZP4EUPkdjJxszeQHDiw-17" value="" style="edgeStyle=orthogonalEdgeStyle;rounded=0;orthogonalLoop=1;jettySize=auto;html=1;" edge="1" parent="1" source="HZP4EUPkdjJxszeQHDiw-11" target="HZP4EUPkdjJxszeQHDiw-15">
          <mxGeometry relative="1" as="geometry" />
        </mxCell>
        <mxCell id="HZP4EUPkdjJxszeQHDiw-19" value="" style="edgeStyle=orthogonalEdgeStyle;rounded=0;orthogonalLoop=1;jettySize=auto;html=1;" edge="1" parent="1" source="HZP4EUPkdjJxszeQHDiw-11" target="HZP4EUPkdjJxszeQHDiw-18">
          <mxGeometry relative="1" as="geometry">
            <Array as="points">
              <mxPoint x="-120" y="275" />
              <mxPoint x="-120" y="5" />
            </Array>
          </mxGeometry>
        </mxCell>
        <mxCell id="HZP4EUPkdjJxszeQHDiw-11" value="&lt;b&gt;Infantryman // Пехотинец&lt;/b&gt;&lt;br&gt;&lt;div&gt;&lt;ol&gt;&lt;li style=&quot;border-color: var(--border-color); text-align: left;&quot;&gt;protected int quantityWeapons; // Число орудий&lt;br&gt;&lt;/li&gt;&lt;/ol&gt;&lt;/div&gt;" style="rounded=0;whiteSpace=wrap;html=1;" vertex="1" parent="1">
          <mxGeometry x="-60" y="180" width="330" height="190" as="geometry" />
        </mxCell>
        <mxCell id="HZP4EUPkdjJxszeQHDiw-13" value="&lt;b&gt;Knight // Рыцарь&lt;/b&gt;&lt;br&gt;&lt;div&gt;&lt;ol&gt;&lt;li style=&quot;border-color: var(--border-color); text-align: left;&quot;&gt;protected String name // -&lt;/li&gt;&lt;li style=&quot;border-color: var(--border-color); text-align: left;&quot;&gt;protected int level; // 1&lt;/li&gt;&lt;li style=&quot;border-color: var(--border-color); text-align: left;&quot;&gt;protected int maxLevel; // 100&lt;/li&gt;&lt;li style=&quot;border-color: var(--border-color); text-align: left;&quot;&gt;protected int health; // 50&lt;/li&gt;&lt;li style=&quot;border-color: var(--border-color); text-align: left;&quot;&gt;protected int maxHealth; // 1000&lt;/li&gt;&lt;li style=&quot;border-color: var(--border-color); text-align: left;&quot;&gt;protected int[] damage; // 1-4&lt;/li&gt;&lt;li style=&quot;border-color: var(--border-color); text-align: left;&quot;&gt;protected int armor; // 2&lt;/li&gt;&lt;li style=&quot;border-color: var(--border-color); text-align: left;&quot;&gt;protected int force; // 4&lt;/li&gt;&lt;li style=&quot;border-color: var(--border-color); text-align: left;&quot;&gt;protected int agility; // 3&lt;/li&gt;&lt;li style=&quot;border-color: var(--border-color); text-align: left;&quot;&gt;protected int accuracy; // 2&lt;/li&gt;&lt;li style=&quot;border-color: var(--border-color); text-align: left;&quot;&gt;protected int quantityWeapons; // 1&lt;/li&gt;&lt;/ol&gt;&lt;/div&gt;" style="rounded=0;whiteSpace=wrap;html=1;" vertex="1" parent="1">
          <mxGeometry x="-510" y="470" width="330" height="210" as="geometry" />
        </mxCell>
        <mxCell id="HZP4EUPkdjJxszeQHDiw-15" value="&lt;b&gt;Assassin //&amp;nbsp;Убийца&lt;/b&gt;&lt;br&gt;&lt;div&gt;&lt;ol&gt;&lt;li style=&quot;border-color: var(--border-color); text-align: left;&quot;&gt;protected String name // -&lt;/li&gt;&lt;li style=&quot;border-color: var(--border-color); text-align: left;&quot;&gt;protected int level; // 1&lt;/li&gt;&lt;li style=&quot;border-color: var(--border-color); text-align: left;&quot;&gt;protected int maxLevel; // 100&lt;/li&gt;&lt;li style=&quot;border-color: var(--border-color); text-align: left;&quot;&gt;protected int health; // 40&lt;/li&gt;&lt;li style=&quot;border-color: var(--border-color); text-align: left;&quot;&gt;protected int maxHealth; // 1000&lt;/li&gt;&lt;li style=&quot;border-color: var(--border-color); text-align: left;&quot;&gt;protected int[] damage; // 1-3&lt;/li&gt;&lt;li style=&quot;border-color: var(--border-color); text-align: left;&quot;&gt;protected int armor; // 1&lt;/li&gt;&lt;li style=&quot;border-color: var(--border-color); text-align: left;&quot;&gt;protected int force; // 2&lt;/li&gt;&lt;li style=&quot;border-color: var(--border-color); text-align: left;&quot;&gt;protected int agility; // 5&lt;/li&gt;&lt;li style=&quot;border-color: var(--border-color); text-align: left;&quot;&gt;protected int accuracy; // 3&lt;/li&gt;&lt;li style=&quot;border-color: var(--border-color); text-align: left;&quot;&gt;protected int quantityWeapons; // 1&lt;/li&gt;&lt;/ol&gt;&lt;/div&gt;" style="rounded=0;whiteSpace=wrap;html=1;" vertex="1" parent="1">
          <mxGeometry x="-510" y="165" width="330" height="220" as="geometry" />
        </mxCell>
        <mxCell id="HZP4EUPkdjJxszeQHDiw-18" value="&lt;b&gt;Barbarian //&amp;nbsp;Варвар&lt;/b&gt;&lt;br&gt;&lt;div&gt;&lt;ol&gt;&lt;li style=&quot;border-color: var(--border-color); text-align: left;&quot;&gt;protected String name // -&lt;/li&gt;&lt;li style=&quot;border-color: var(--border-color); text-align: left;&quot;&gt;protected int level; // 1&lt;/li&gt;&lt;li style=&quot;border-color: var(--border-color); text-align: left;&quot;&gt;protected int maxLevel; // 100&lt;/li&gt;&lt;li style=&quot;border-color: var(--border-color); text-align: left;&quot;&gt;protected int health; // 60&lt;/li&gt;&lt;li style=&quot;border-color: var(--border-color); text-align: left;&quot;&gt;protected int maxHealth; // 1000&lt;/li&gt;&lt;li style=&quot;border-color: var(--border-color); text-align: left;&quot;&gt;protected int[] damage; // 2-6&lt;/li&gt;&lt;li style=&quot;border-color: var(--border-color); text-align: left;&quot;&gt;protected int armor; // 1&lt;/li&gt;&lt;li style=&quot;border-color: var(--border-color); text-align: left;&quot;&gt;protected int force; // 6&lt;/li&gt;&lt;li style=&quot;border-color: var(--border-color); text-align: left;&quot;&gt;protected int agility; // 2&lt;/li&gt;&lt;li style=&quot;border-color: var(--border-color); text-align: left;&quot;&gt;protected int accuracy; // 1&lt;/li&gt;&lt;li style=&quot;border-color: var(--border-color); text-align: left;&quot;&gt;protected int quantityWeapons; // 1&lt;/li&gt;&lt;/ol&gt;&lt;/div&gt;" style="rounded=0;whiteSpace=wrap;html=1;" vertex="1" parent="1">
          <mxGeometry x="-510" y="-100" width="330" height="210" as="geometry" />
        </mxCell>
        <mxCell id="HZP4EUPkdjJxszeQHDiw-20" value="&lt;b&gt;Arbalester // Арбалекчик&lt;/b&gt;&lt;br&gt;&lt;div&gt;&lt;ol&gt;&lt;li style=&quot;border-color: var(--border-color); text-align: left;&quot;&gt;protected String name // -&lt;/li&gt;&lt;li style=&quot;border-color: var(--border-color); text-align: left;&quot;&gt;protected int level; // 1&lt;/li&gt;&lt;li style=&quot;border-color: var(--border-color); text-align: left;&quot;&gt;protected int maxLevel; // 100&lt;/li&gt;&lt;li style=&quot;border-color: var(--border-color); text-align: left;&quot;&gt;protected int health; // 30&lt;/li&gt;&lt;li style=&quot;border-color: var(--border-color); text-align: left;&quot;&gt;protected int maxHealth; // 1000&lt;/li&gt;&lt;li style=&quot;border-color: var(--border-color); text-align: left;&quot;&gt;protected int[] damage; // 1-5&lt;/li&gt;&lt;li style=&quot;border-color: var(--border-color); text-align: left;&quot;&gt;protected int armor; // 1&lt;/li&gt;&lt;li style=&quot;border-color: var(--border-color); text-align: left;&quot;&gt;protected int force; // 3&lt;/li&gt;&lt;li style=&quot;border-color: var(--border-color); text-align: left;&quot;&gt;protected int agility; // 4&lt;/li&gt;&lt;li style=&quot;border-color: var(--border-color); text-align: left;&quot;&gt;protected int accuracy; // 4&lt;/li&gt;&lt;li style=&quot;border-color: var(--border-color); text-align: left;&quot;&gt;protected int quantityWeapons; // 20&lt;/li&gt;&lt;/ol&gt;&lt;/div&gt;" style="rounded=0;whiteSpace=wrap;html=1;" vertex="1" parent="1">
          <mxGeometry x="140" y="480" width="260" height="220" as="geometry" />
        </mxCell>
        <mxCell id="HZP4EUPkdjJxszeQHDiw-22" value="&lt;b&gt;Sniper // Снайепр&lt;/b&gt;&lt;br&gt;&lt;div&gt;&lt;ol&gt;&lt;li style=&quot;border-color: var(--border-color); text-align: left;&quot;&gt;protected String name // -&lt;/li&gt;&lt;li style=&quot;border-color: var(--border-color); text-align: left;&quot;&gt;protected int level; // 1&lt;/li&gt;&lt;li style=&quot;border-color: var(--border-color); text-align: left;&quot;&gt;protected int maxLevel; // 100&lt;/li&gt;&lt;li style=&quot;border-color: var(--border-color); text-align: left;&quot;&gt;protected int health; // 30&lt;/li&gt;&lt;li style=&quot;border-color: var(--border-color); text-align: left;&quot;&gt;protected int maxHealth; // 1000&lt;/li&gt;&lt;li style=&quot;border-color: var(--border-color); text-align: left;&quot;&gt;protected int[] damage; // 2-6&lt;/li&gt;&lt;li style=&quot;border-color: var(--border-color); text-align: left;&quot;&gt;protected int armor; // 1&lt;/li&gt;&lt;li style=&quot;border-color: var(--border-color); text-align: left;&quot;&gt;protected int force; // 3&lt;/li&gt;&lt;li style=&quot;border-color: var(--border-color); text-align: left;&quot;&gt;protected int agility; // 3&lt;/li&gt;&lt;li style=&quot;border-color: var(--border-color); text-align: left;&quot;&gt;protected int accuracy; // 5&lt;/li&gt;&lt;li style=&quot;border-color: var(--border-color); text-align: left;&quot;&gt;protected int quantityWeapons; // 15&lt;/li&gt;&lt;/ol&gt;&lt;/div&gt;" style="rounded=0;whiteSpace=wrap;html=1;" vertex="1" parent="1">
          <mxGeometry x="490" y="480" width="260" height="220" as="geometry" />
        </mxCell>
        <mxCell id="HZP4EUPkdjJxszeQHDiw-27" value="&lt;b&gt;Monk // Монах&lt;br&gt;&lt;/b&gt;&lt;div&gt;&lt;ol&gt;&lt;li style=&quot;border-color: var(--border-color); text-align: left;&quot;&gt;protected String name // -&lt;/li&gt;&lt;li style=&quot;border-color: var(--border-color); text-align: left;&quot;&gt;protected int level; // 1&lt;/li&gt;&lt;li style=&quot;border-color: var(--border-color); text-align: left;&quot;&gt;protected int maxLevel; // 100&lt;/li&gt;&lt;li style=&quot;border-color: var(--border-color); text-align: left;&quot;&gt;protected int health; // 30&lt;/li&gt;&lt;li style=&quot;border-color: var(--border-color); text-align: left;&quot;&gt;protected int maxHealth; // 1000&lt;/li&gt;&lt;li style=&quot;border-color: var(--border-color); text-align: left;&quot;&gt;protected int[] damage; // 2-5&lt;/li&gt;&lt;li style=&quot;border-color: var(--border-color); text-align: left;&quot;&gt;protected int armor; // 1&lt;/li&gt;&lt;li style=&quot;border-color: var(--border-color); text-align: left;&quot;&gt;protected int force; // 3&lt;/li&gt;&lt;li style=&quot;border-color: var(--border-color); text-align: left;&quot;&gt;protected int agility; // 3&lt;/li&gt;&lt;li style=&quot;border-color: var(--border-color); text-align: left;&quot;&gt;protected int accuracy; // 4&lt;/li&gt;&lt;li style=&quot;border-color: var(--border-color); text-align: left;&quot;&gt;protected int mana&amp;nbsp;// 15&lt;/li&gt;&lt;/ol&gt;&lt;/div&gt;" style="rounded=0;whiteSpace=wrap;html=1;" vertex="1" parent="1">
          <mxGeometry x="980" y="-110" width="240" height="210" as="geometry" />
        </mxCell>
        <mxCell id="HZP4EUPkdjJxszeQHDiw-31" value="&lt;b&gt;Witch // Колдун&lt;/b&gt;&lt;br&gt;&lt;div&gt;&lt;ol&gt;&lt;li style=&quot;border-color: var(--border-color); text-align: left;&quot;&gt;protected String name // -&lt;/li&gt;&lt;li style=&quot;border-color: var(--border-color); text-align: left;&quot;&gt;protected int level; // 1&lt;/li&gt;&lt;li style=&quot;border-color: var(--border-color); text-align: left;&quot;&gt;protected int maxLevel; // 100&lt;/li&gt;&lt;li style=&quot;border-color: var(--border-color); text-align: left;&quot;&gt;protected int health; // 30&lt;/li&gt;&lt;li style=&quot;border-color: var(--border-color); text-align: left;&quot;&gt;protected int maxHealth; // 1000&lt;/li&gt;&lt;li style=&quot;border-color: var(--border-color); text-align: left;&quot;&gt;protected int[] damage; // 2-5&lt;/li&gt;&lt;li style=&quot;border-color: var(--border-color); text-align: left;&quot;&gt;protected int armor; // 1&lt;/li&gt;&lt;li style=&quot;border-color: var(--border-color); text-align: left;&quot;&gt;protected int force; // 3&lt;/li&gt;&lt;li style=&quot;border-color: var(--border-color); text-align: left;&quot;&gt;protected int agility; // 3&lt;/li&gt;&lt;li style=&quot;border-color: var(--border-color); text-align: left;&quot;&gt;protected int accuracy; // 4&lt;/li&gt;&lt;li style=&quot;border-color: var(--border-color); text-align: left;&quot;&gt;protected int mana&amp;nbsp;// 15&lt;/li&gt;&lt;/ol&gt;&lt;/div&gt;" style="rounded=0;whiteSpace=wrap;html=1;" vertex="1" parent="1">
          <mxGeometry x="980" y="165" width="240" height="220" as="geometry" />
        </mxCell>
      </root>
    </mxGraphModel>
  </diagram>
</mxfile>
